Coordinates
version=1
nRows=8
nColumns=28
inDegrees=yes

Units are S.I. units (second, meters, Newtons, ...)
Angles are in degrees.

endheader
time	pelvis_tilt	pelvis_list	pelvis_rotation	pelvis_tx	pelvis_ty	pelvis_tz	hip_flexion_r	hip_adduction_r	hip_rotation_r	knee_angle_r	ankle_angle_r	subtalar_angle_r	mtp_angle_r	hip_flexion_l	hip_adduction_l	hip_rotation_l	knee_angle_l	socket_flexion	socket_adduction	socket_rotation	socket_tx	socket_ty	socket_tz	foot_flex	lumbar_extension	lumbar_bending	lumbar_rotation
      0.27083333	      0.43524124	      2.36329899	     -3.01622402	     -0.36272138	      0.98227642	      0.26274006	     15.35855470	     -3.23646182	      4.44119338	    -64.61411612	    -10.93272941	     -7.45497731	     14.58923222	     11.48407863	      2.29925950	     -4.01618339	    -24.60212486	     -1.63099365	     -0.60111940	      6.51942541	      0.00490382	     -0.00960689	     -0.02000000	      4.47531243	     -6.75074774	     -4.60139820	     -3.76684753
      0.27500000	      0.55702250	      2.15854053	     -2.94203677	     -0.35669397	      0.98370938	      0.26261377	     15.91528663	     -2.97407842	      4.30793713	    -64.48910642	    -10.01078590	     -7.66445654	     14.33573859	     10.66511302	      2.07833823	     -4.13728625	    -24.37211298	     -1.85737510	     -0.62210544	      6.76181842	      0.00389622	     -0.00960096	     -0.02000000	      4.52087478	     -6.85448764	     -4.33196223	     -3.92950111
      0.27916667	      0.68392425	      1.94170975	     -2.87315310	     -0.35069600	      0.98513836	      0.26243146	     16.45262925	     -2.70413757	      4.17907680	    -64.31418394	     -9.06414788	     -7.91011121	     14.05856836	      9.84885289	      1.85322488	     -4.25271620	    -24.14688843	     -2.07667832	     -0.66376395	      7.01726959	      0.00289615	     -0.00959842	     -0.02000000	      4.55675898	     -6.97283112	     -4.07223367	     -4.10373437
      0.28333333	      0.80115851	      1.73495531	     -2.79599639	     -0.34475948	      0.98651378	      0.26227897	     16.99095386	     -2.45030675	      4.02936034	    -64.08556783	     -8.19581570	     -8.16818102	     13.77626488	      9.06258472	      1.65291638	     -4.36209717	    -23.92980417	     -2.28811000	     -0.70626803	      7.27352969	      0.00197466	     -0.00956524	     -0.01978247	      4.58618648	     -7.07566176	     -3.80118586	     -4.27369542
      0.28750000	      0.79427304	      1.62871522	     -2.63497579	     -0.33937953	      0.98772313	      0.26185948	     17.70564906	     -2.31327608	      3.90574402	    -63.80099570	     -8.01570204	     -8.23077470	     13.74223670	      8.63950282	      1.65008249	     -4.37096314	    -23.82901642	     -2.37620956	     -0.83351191	      7.37180262	      0.00199670	     -0.00896275	     -0.01910152	      4.62158338	     -7.28714432	     -3.78972887	     -4.29955373
      0.29166667	      1.09278388	      1.24344204	     -2.61722957	     -0.33323624	      0.98929267	      0.26218100	     17.94524822	     -1.76553019	      3.81238033	    -63.45722303	     -6.39989696	     -8.79457778	     13.01319058	      7.51866228	      1.06367580	     -4.57494138	    -23.54354285	     -2.67596698	     -0.71571173	      7.87278216	      0.00044838	     -0.00935880	     -0.02000000	      4.63314533	     -7.52349622	     -3.31490527	     -4.71263757
      0.29583333	      1.39100993	      0.89930923	     -2.51154113	     -0.32720957	      0.99095282	      0.26213307	     18.12793117	     -1.30842359	      3.67199781	    -62.93956661	     -5.49992326	     -9.26612907	     11.74722628	      6.50134338	      0.66160208	     -4.83457432	    -23.30727460	     -2.91405605	     -0.77718635	      8.30545794	     -0.00054268	     -0.00939515	     -0.02000000	      4.63876792	     -7.86197834	     -2.92493448	     -4.95993572
      0.30000000	      1.37290939	      0.83244433	     -2.41201025	     -0.32184759	      0.99204270	      0.26171929	     18.81035774	     -1.26544337	      3.51346658	    -62.47426926	     -5.35711372	     -9.33759693	     11.70742697	      6.13152460	      0.66956939	     -4.87970517	    -23.22566460	     -2.98352829	     -0.91135360	      8.34014314	     -0.00025456	     -0.00866407	     -0.01976432	      4.65732004	     -8.00197816	     -2.90389251	     -4.96969701
